# xmcd
#
# Track frame offsets:
#	150
#	11282
#	27145
#	41382
#	54387
#	69882
#	80775
#	96452
#	109315
#	126497
#	140920
#	154617
#	174227
#	183370
#	195747
#	214660
#
# Disc length: 3073 seconds
# Revision: 3
# Processed by: cddbd v1.5.2PL0 Copyright (c) Steve Scherf et al.
# Submitted via: dBpowerAMP V12.0
#
DISCID=da0bff10
DTITLE=Rick Holmstrom - Lookout!
DYEAR=2005
DGENRE=Blues
TTITLE0=hit it
TTITLE1=tacos de pescado
TTITLE2=fooled ya
TTITLE3=a good one
TTITLE4=the floater
TTITLE5=lookout holmes
TTITLE6=jungle ball
TTITLE7=holmes hop
TTITLE8=north of montana
TTITLE9=goin' up river
TTITLE10=she's my baby
TTITLE11=lucky lou
TTITLE12=rub it
TTITLE13=on your rocker
TTITLE14=maria cecile
TTITLE15=guitar boogie shuffle twist
EXTD=
EXTT0=
EXTT1=
EXTT2=
EXTT3=
EXTT4=
EXTT5=
EXTT6=
EXTT7=
EXTT8=
EXTT9=
EXTT10=
EXTT11=
EXTT12=
EXTT13=
EXTT14=
EXTT15=
PLAYORDER=
